<svg xmlns="http://www.w3.org/2000/svg" width="600" height="600" viewBox="0 0 600 600">
<g>
<path d="M 160.50 492.59 C111.50,485.38 67.82,452.21 49.38,408.22 C47.83,404.52 46.32,401.27 46.02,401.00 C45.25,400.30 42.07,388.26 39.80,377.50 C38.46,371.12 37.73,362.31 37.31,347.25 L 36.72 326.00 L 94.36 326.00 L 152.00 326.00 L 152.01 341.25 C152.02,355.11 152.23,356.96 154.35,361.51 C162.33,378.63 186.14,382.70 199.31,369.19 C202.97,365.43 206.43,358.76 205.29,357.63 C204.95,357.28 205.19,357.00 205.83,357.00 C206.72,357.00 207.00,324.96 207.00,225.25 L 207.00 93.50 L 263.75 93.74 C294.96,93.87 320.61,94.21 320.75,94.49 C320.89,94.77 321.00,103.55 321.00,114.00 L 321.00 133.00 L 283.25 133.00 L 245.50 133.00 L 245.50 247.25 L 245.50 361.50 L 243.16 369.00 C237.13,388.27 223.03,404.16 205.75,411.15 C197.04,414.68 190.02,415.97 179.46,415.98 C167.30,416.00 160.17,414.33 149.32,408.91 C134.52,401.51 122.19,387.53 117.01,372.25 L 114.55 365.00 L 95.77 365.00 C73.99,365.00 75.71,363.65 79.50,377.81 C85.48,400.12 98.16,419.11 116.28,432.86 C124.91,439.41 140.21,448.00 143.25,448.00 C143.99,448.00 145.03,448.41 145.55,448.91 C146.07,449.41 151.00,450.83 156.50,452.06 C170.70,455.24 188.73,455.22 202.75,452.02 C208.39,450.74 213.00,449.30 213.00,448.84 C213.00,448.38 213.91,448.00 215.02,448.00 C218.05,448.00 233.68,439.85 240.50,434.71 C248.44,428.73 259.61,417.04 264.95,409.12 C271.01,400.13 276.69,387.55 279.80,376.21 L 282.46 366.50 L 282.77 268.25 L 283.08 170.00 L 302.04 170.00 L 321.00 170.00 L 321.00 267.56 C321.00,332.88 320.64,367.49 319.91,372.31 C315.49,401.49 302.68,427.75 282.62,448.74 C260.74,471.64 234.19,486.32 205.09,491.61 C193.31,493.75 171.60,494.23 160.50,492.59 ZM 279.22 489.95 C279.38,489.57 282.89,486.57 287.03,483.29 C296.17,476.05 307.51,464.59 312.68,457.38 L 316.50 452.04 L 422.77 452.02 L 529.04 452.00 L 528.77 432.75 L 528.50 413.50 L 444.00 413.50 L 359.50 413.50 L 359.25 253.75 L 358.99 94.00 L 377.50 94.00 L 396.00 94.00 L 396.11 230.75 C396.20,351.55 396.31,370.99 396.87,374.25 C396.94,374.66 435.02,375.00 481.50,375.00 L 566.00 375.00 L 566.00 432.50 L 566.00 490.00 L 519.25 490.12 C326.11,490.60 278.98,490.57 279.22,489.95 Z" fill="#7e22ce"/></g>
</svg>